/* XPM */
static char * door_xpm[] = {
"32 32 9 1",
" 	c None",
".	c #4E3C2F",
"+	c #574431",
"@	c #675337",
"#	c #6D593B",
"$	c #75613E",
"%	c #5F4B35",
"&	c #383229",
"*	c #494233",
"................................",
"+@##@+@$$$$$$$$$$$$$$$$$$@+@##@+",
"+@++@+@@################@@+@++@+",
"+@@@@+@@@@@@@@@@@@@@@@@@@@+@@@@+",
"+@@@@+%@@@@@@@@@@@@@@@@@@%+@@@@+",
"+@@@@++++++++++++++++++++++@@@@+",
"+@@@@+....................+@@@@+",
"+@@@#+        +%%+        +@@@@+",
"+@@#@+        +%%+        +@#@@+",
"+#@##+        +@@+        +##@@+",
"+####+        %@@%        +##@#+",
"+####+        %@#%        +####+",
"+####+        %##%        +####+",
"+####+        %##%        +####+",
"+####+        %#$%        +####+",
"+####+        %$$%        +####+",
"+##$#+        %$$%        +####+",
"+$#$$+@###$$$$$$$$$$$$###@+##$#+",
"+$$$$+@@###$$$$$$$$$$###@@+#$$$+",
"+$$$$+@@@@@@@@@$$@@@@@@@@@+##$$+",
"+$$$$+........%$$%........+#$$$+",
"+$$$$+        %$$%        +$#$$+",
"+$$$$+        %#$%        +###$+",
"+$$$$+        %##%        +$#$$+",
"+$$$$+        %##%        +$$$$+",
"+$$$$+        %##%        +$$$$+",
"+$$$$+        %@#%        +$$$$+",
"+$$$$+        %@@%        +$$$$+",
"+$$$$+        +@@+        +$$$$+",
"+$$$$+        +%%+        +$$$$+",
"+$$$$++++++++++++++++++++++$$$$+",
"+$$$$+@$$$$$$$$$$$$$$$$$$@+&**&+"};
