/* XPM */
static char * enemy_xpm[] = {
"50 50 311 2",
"  	c #CB0000",
". 	c #CC0102",
"+ 	c #D25007",
"@ 	c #CF3003",
"# 	c #CC0A02",
"$ 	c #E08907",
"% 	c #EBA809",
"& 	c #D76703",
"* 	c #CC0001",
"= 	c #D55906",
"- 	c #F6C506",
"; 	c #F2BA04",
"> 	c #D66903",
", 	c #CF2D04",
"' 	c #F1B604",
") 	c #FED602",
"! 	c #EDAB05",
"~ 	c #D03E03",
"{ 	c #CC1302",
"] 	c #EEAE04",
"^ 	c #FED600",
"/ 	c #FACC03",
"( 	c #DC7605",
"_ 	c #CC1202",
": 	c #EFB103",
"< 	c #FFD600",
"[ 	c #FED601",
"} 	c #E59A05",
"| 	c #CB0201",
"1 	c #CB0001",
"2 	c #CC0000",
"3 	c #CD2602",
"4 	c #F5BF03",
"5 	c #FFD601",
"6 	c #EDAB04",
"7 	c #CD0D01",
"8 	c #CE2503",
"9 	c #EBA404",
"0 	c #E9A403",
"a 	c #E18C04",
"b 	c #D97203",
"c 	c #D55304",
"d 	c #D24A04",
"e 	c #FBCE03",
"f 	c #EEAF04",
"g 	c #CB0701",
"h 	c #CE2702",
"i 	c #FED500",
"j 	c #F7C702",
"k 	c #F1B804",
"l 	c #EAA605",
"m 	c #DC7B05",
"n 	c #CC0002",
"o 	c #DE8305",
"p 	c #EAA305",
"q 	c #CE2803",
"r 	c #F2BB04",
"s 	c #F8C704",
"t 	c #D24C03",
"u 	c #F2B705",
"v 	c #DF8605",
"w 	c #CE2B02",
"x 	c #F2BC05",
"y 	c #F7C805",
"z 	c #D24C04",
"A 	c #D55F05",
"B 	c #FED502",
"C 	c #FCD102",
"D 	c #D45203",
"E 	c #CE2E02",
"F 	c #F2BB05",
"G 	c #F8C603",
"H 	c #D14903",
"I 	c #CC0101",
"J 	c #EEB105",
"K 	c #F2B804",
"L 	c #CB0101",
"M 	c #CE2F02",
"N 	c #F3BE06",
"O 	c #F7C705",
"P 	c #D24803",
"Q 	c #D76A06",
"R 	c #DB7906",
"S 	c #CE2D02",
"T 	c #F3BE04",
"U 	c #F6C503",
"V 	c #D14804",
"W 	c #F6C305",
"X 	c #CF3203",
"Y 	c #F3BD03",
"Z 	c #F7C504",
"` 	c #D14403",
" .	c #E69803",
"..	c #D76205",
"+.	c #CF3103",
"@.	c #F3BF03",
"#.	c #E08706",
"$.	c #D65C02",
"%.	c #E9A405",
"&.	c #CF3503",
"*.	c #F4BE05",
"=.	c #FED401",
"-.	c #DD8004",
";.	c #CB0302",
">.	c #FBCD02",
",.	c #FBCC03",
"'.	c #CC0B03",
").	c #CE3602",
"!.	c #F4C004",
"~.	c #FED504",
"{.	c #E08B05",
"].	c #CB0002",
"^.	c #F0B603",
"/.	c #D86904",
"(.	c #CB0C02",
"_.	c #EDAE03",
":.	c #F6C204",
"<.	c #EDAF06",
"[.	c #E49104",
"}.	c #CB0102",
"|.	c #E9A204",
"1.	c #E79905",
"2.	c #CD0F02",
"3.	c #EDAD07",
"4.	c #F5C203",
"5.	c #CF3B02",
"6.	c #CC0D01",
"7.	c #EFB106",
"8.	c #FFD602",
"9.	c #E69A06",
"0.	c #E29103",
"a.	c #F0B502",
"b.	c #CC0E02",
"c.	c #EDB003",
"d.	c #D13B04",
"e.	c #CD1902",
"f.	c #F0B704",
"g.	c #FED701",
"h.	c #E9A304",
"i.	c #CC0301",
"j.	c #E18C03",
"k.	c #F7C604",
"l.	c #CC1002",
"m.	c #EEAE06",
"n.	c #F5C004",
"o.	c #D03804",
"p.	c #CE2203",
"q.	c #F1B903",
"r.	c #EBA905",
"s.	c #CB1102",
"t.	c #E08D03",
"u.	c #FDD602",
"v.	c #CC0401",
"w.	c #CD1002",
"x.	c #EEB004",
"y.	c #F3C005",
"z.	c #CF3704",
"A.	c #CE2C02",
"B.	c #F3BD04",
"C.	c #EEB005",
"D.	c #CC1C01",
"E.	c #E69902",
"F.	c #FDD702",
"G.	c #CD1800",
"H.	c #CC1201",
"I.	c #CD3502",
"J.	c #CE3304",
"K.	c #F5C003",
"L.	c #F1B503",
"M.	c #EDB004",
"N.	c #FCD703",
"O.	c #CE1D01",
"P.	c #D03B03",
"Q.	c #F5C306",
"R.	c #F2BB03",
"S.	c #CE3104",
"T.	c #CB0601",
"U.	c #FACB02",
"V.	c #FDD603",
"W.	c #CB0D00",
"X.	c #D14103",
"Y.	c #F6C603",
"Z.	c #D03705",
"`.	c #DA6F03",
" +	c #FACC05",
".+	c #CD0000",
"++	c #D24903",
"@+	c #F8C802",
"#+	c #F5C304",
"$+	c #D24604",
"%+	c #F3BB02",
"&+	c #D34F04",
"*+	c #F9CB04",
"=+	c #F8C803",
"-+	c #DC7D06",
";+	c #E79F03",
">+	c #CB0100",
",+	c #CC1601",
"'+	c #D45704",
")+	c #F9CA03",
"!+	c #FACF02",
"~+	c #D96B04",
"{+	c #CE3401",
"]+	c #D76B02",
"^+	c #E79C04",
"/+	c #F5C104",
"(+	c #D13F06",
"_+	c #D55B05",
":+	c #FBCE02",
"<+	c #CC1802",
"[+	c #E49506",
"}+	c #F7C804",
"|+	c #D76404",
"1+	c #D76405",
"2+	c #FBD003",
"3+	c #E38F04",
"4+	c #E9A004",
"5+	c #FED402",
"6+	c #EBA706",
"7+	c #D25003",
"8+	c #E18D06",
"9+	c #F8C904",
"0+	c #CE2103",
"a+	c #D35005",
"b+	c #FCD203",
"c+	c #FED503",
"d+	c #F4BF03",
"e+	c #E08E02",
"f+	c #E08403",
"g+	c #E18704",
"h+	c #E09001",
"i+	c #E8A205",
"j+	c #F6C203",
"k+	c #FED702",
"l+	c #DB7805",
"m+	c #CE3003",
"n+	c #E59905",
"o+	c #FBCC01",
"p+	c #FED501",
"q+	c #DF8404",
"r+	c #D35004",
"s+	c #F4C104",
"t+	c #E38D05",
"u+	c #D45502",
"v+	c #F7C906",
"w+	c #E28D02",
"x+	c #EAA307",
"y+	c #F1B805",
"z+	c #D03B04",
"A+	c #CF3C03",
"B+	c #F0B405",
"C+	c #E49306",
"D+	c #CD2501",
"E+	c #E9A505",
"F+	c #F1B705",
"G+	c #CC1701",
"H+	c #DE7E05",
"I+	c #F5C204",
"J+	c #E79D04",
"K+	c #CD2002",
"L+	c #F1B904",
"M+	c #FACE03",
"N+	c #D13D03",
"O+	c #CB0801",
"P+	c #DB7B04",
"Q+	c #EFB205",
"R+	c #FBCF03",
"S+	c #EBA605",
"T+	c #D76603",
"U+	c #E39104",
"V+	c #EAA406",
"W+	c #CC0603",
"X+	c #E9A104",
"Y+	c #E79B05",
"Z+	c #D65D03",
"`+	c #E08005",
" @	c #E29101",
".@	c #E49302",
"+@	c #E19101",
"@@	c #E08206",
"#@	c #D45802",
"$@	c #E49605",
"%@	c #EBAB04",
"&@	c #FDD402",
"*@	c #D34C04",
"=@	c #E89C08",
"-@	c #DA7706",
";@	c #E18D04",
">@	c #E79F06",
",@	c #E9A305",
"'@	c #E49702",
")@	c #E29602",
"!@	c #CC0303",
"~@	c #EAA805",
"{@	c #DD7D04",
"]@	c #E08A05",
"^@	c #FCD201",
"/@	c #E59A06",
"(@	c #CB1502",
"_@	c #CC0B04",
":@	c #ECAC03",
"<@	c #FFD501",
"[@	c #F1B806",
"}@	c #E49105",
"|@	c #E39203",
"1@	c #E08605",
"2@	c #D03F03",
"3@	c #CC0201",
"4@	c #DB7705",
"5@	c #DE7D04",
"6@	c #CC1103",
"                                                                                                    ",
"                                                                                                    ",
"                                                                                                    ",
"                                                . + @                                               ",
"                                                  # $ % & *                                         ",
"                                                    * = - ; > *                                     ",
"                                                        , ' ) ! ~                                   ",
"                                                          { ] ^ / (                                 ",
"                                                            _ : < [ } |                             ",
"                                    1 2                       3 4 < 5 6 7                           ",
"                                  8 9 0 a b c # *               d e < < f g                         ",
"                                h ; 5 < < < < i j k l m n       1 o < < 5 p                         ",
"                              q r < < < < < < < < < s t           * u < < ^ v                       ",
"                            w x < < < < < < < < < y z               A B < < C D                     ",
"                          E F < < < < < < < < < G H                 I J < < < K L                   ",
"                        M N < < < < < < < < ) O P                     Q [ < < ^ R                   ",
"                      S T < < < < < < < < < U V                       I W < < < T 1                 ",
"                    X Y < < < < < < < < < Z `                            .< < < [ ..                ",
"                  +.@.< < < < < < < < < < #.1                           $.) < < < %.                ",
"                &.*.< < < < < < < < < < < =.-.L                         ;.>.< < < ,.'.              ",
"              ).!.< < < < < < < < < < < < < ~.{.].                      L ^.< < < 5 /.              ",
"              (._.^ < < < < < < < :.<.< < < < B [.}.                      |.< < < 5 1.              ",
"                2.3.< < < < < < 4.5.6.7.8.< < < [ 9.}.                    0.< < < < a.1             ",
"                  b.c.< < < < 4.d.    e.f.< < < < g.h.i.                  j.< < < < k.1             ",
"                    l.m.< < n.o.        p.q.< < < < 5 r.s.                t.< < < < u.v.            ",
"                      w.x.y.z.            A.B.< < < < [ C.D.              E.< < < < F.G.            ",
"                        H.I.1               J.K.< < < < 5 L.h             M.< < < < N.O.            ",
"                                              P.Q.< < < < < R.S.        T.U.< < < < V.W.            ",
"                                                X.Y.< < < < < K.Z.      `.[ < < < <  +.+            ",
"                                                  ++@+< < < < < #+$+    k < < < < < %+*             ",
"                                                    &+*+< < < < < =+&+-+< < < < < < ;+>+            ",
"                                  ,+                  '+/ < < < < < )+!+< < < < < < ~+              ",
"                            {+]+^+/+(+                  _+:+< < < < < < < < < < < k.;.              ",
"                        <+[+*+g.5 5 }+|+                1 1+2+< < < < < < < < < < 3+                ",
"                        4+< < < < < < 5+6+7+I             . 8+[ < < < < < < < < 9+0+                ",
"                      a+b+< < < < < < < < c+d+h.e+f+g+h+i+j+k+< < < < < < < < 8.l+                  ",
"                    m+n.< < < ) n+o+< < < < < < < < < < < < < < < < < < < < < p+q+                  ",
"                  r+s+< < < :+t+I u+v+< < < < < < < < < < < < < < < < < < < < < [ w+1               ",
"            * '+x+C < < < y+z+      A+B+< < < < < < < < < < < < < < < < < < < < < 5 C+.             ",
"          D+E+B < < < < F+G+          L H+Z 5 < < < < < < < < < < ^ 8.I+5 < < < < < 5 J+}.          ",
"        K+L+< < < < < M+N+                O+P+Q+R+[ < < < < < [ *+S+T+. U+[ < < < < < 5 V+W+        ",
"        X+5 < < < < < Y+                      1 6.Z+`+ @.@+@@@#@1 1     I $@5 < < < < < < %@L       ",
"      ++&@< < < < < &@*@                                                  1 =@< < < < < < 8.-@      ",
"      ;@< < < < < < >@L                                                     L ,@[ < < < < < '@      ",
"      )@< < < < < : _                                                         !@~@< < < < ^ {@      ",
"      ]@< < 5 ^@/@(@                                                            _@:@<@< < [@l.      ",
"      S }@|@1@2@1                                                                 3@4@'@5@6@        ",
"                                                                                                    ",
"                                                                                                    ",
"                                                                                                    "};
