/* XPM */
static char * enemy_xpm[] = {
"40 40 623 2",
"  	c #100F0D",
". 	c #141311",
"+ 	c #11100E",
"@ 	c #171614",
"# 	c #171715",
"$ 	c #21201F",
"% 	c #211E1B",
"& 	c #221C16",
"* 	c #16110D",
"= 	c #110E0B",
"- 	c #0C0C0B",
"; 	c #120E0C",
"> 	c #15100D",
", 	c #130E0B",
"' 	c #100C0A",
") 	c #0D0C0A",
"! 	c #131210",
"~ 	c #151412",
"{ 	c #12110F",
"] 	c #0E0D0B",
"^ 	c #0C0B09",
"/ 	c #060807",
"( 	c #0B0C0A",
"_ 	c #10100B",
": 	c #19150F",
"< 	c #16130E",
"[ 	c #1A1A17",
"} 	c #191A17",
"| 	c #0E0D0C",
"1 	c #090909",
"2 	c #080808",
"3 	c #1A1918",
"4 	c #1E1D1B",
"5 	c #262523",
"6 	c #242321",
"7 	c #22211F",
"8 	c #1D1C1A",
"9 	c #23201D",
"0 	c #2D2824",
"a 	c #241B15",
"b 	c #1E1814",
"c 	c #14110F",
"d 	c #0E0E0D",
"e 	c #120D0A",
"f 	c #0E0A08",
"g 	c #0A0907",
"h 	c #0F0E0C",
"i 	c #0B0A08",
"j 	c #0C0B08",
"k 	c #090908",
"l 	c #0F0E0D",
"m 	c #171310",
"n 	c #1A140F",
"o 	c #1F1915",
"p 	c #211F1B",
"q 	c #191816",
"r 	c #0B0B0B",
"s 	c #21201E",
"t 	c #343331",
"u 	c #3A3937",
"v 	c #333230",
"w 	c #292826",
"x 	c #302E2C",
"y 	c #26201C",
"z 	c #282019",
"A 	c #2C2118",
"B 	c #27211C",
"C 	c #15120F",
"D 	c #0F0E0E",
"E 	c #100D0B",
"F 	c #100B08",
"G 	c #0C0806",
"H 	c #090806",
"I 	c #0C0A0A",
"J 	c #141110",
"K 	c #201916",
"L 	c #241B17",
"M 	c #231B18",
"N 	c #1C1714",
"O 	c #1B1817",
"P 	c #252422",
"Q 	c #272625",
"R 	c #232221",
"S 	c #232323",
"T 	c #111111",
"U 	c #2A2928",
"V 	c #3C3C3B",
"W 	c #4B4A49",
"X 	c #4D4B4B",
"Y 	c #403C3A",
"Z 	c #2D2825",
"` 	c #322B25",
" .	c #2D241D",
"..	c #352B24",
"+.	c #322924",
"@.	c #1D1613",
"#.	c #100D0C",
"$.	c #0E0B0A",
"%.	c #0E0B09",
"&.	c #0D0A08",
"*.	c #0A0806",
"=.	c #080807",
"-.	c #0D0C0C",
";.	c #0D0D0C",
">.	c #0A0A09",
",.	c #080706",
"'.	c #0D0B0A",
").	c #161210",
"!.	c #201A16",
"~.	c #271E18",
"{.	c #29201B",
"].	c #251F1C",
"^.	c #1F1B19",
"/.	c #353433",
"(.	c #242424",
"_.	c #1F1F1F",
":.	c #292929",
"<.	c #3B3B3B",
"[.	c #3D3D3D",
"}.	c #3F3C3D",
"|.	c #2D2927",
"1.	c #2C2421",
"2.	c #312922",
"3.	c #342B25",
"4.	c #362D27",
"5.	c #2B231E",
"6.	c #1E1714",
"7.	c #0D0B09",
"8.	c #0D0D0D",
"9.	c #0C0C0C",
"0.	c #050505",
"a.	c #060606",
"b.	c #221C17",
"c.	c #241C16",
"d.	c #1F1812",
"e.	c #201B18",
"f.	c #201D1B",
"g.	c #32312F",
"h.	c #3B3B39",
"i.	c #3A3A3A",
"j.	c #282828",
"k.	c #353535",
"l.	c #434343",
"m.	c #555455",
"n.	c #4F4C4D",
"o.	c #44403E",
"p.	c #37302D",
"q.	c #28221E",
"r.	c #1E1914",
"s.	c #231E1A",
"t.	c #251F19",
"u.	c #181410",
"v.	c #0F0E0B",
"w.	c #080705",
"x.	c #060605",
"y.	c #070707",
"z.	c #0A0A0A",
"A.	c #070604",
"B.	c #16120F",
"C.	c #1C1611",
"D.	c #211A15",
"E.	c #1A1511",
"F.	c #181614",
"G.	c #1E1D1C",
"H.	c #2E2D2B",
"I.	c #3F3E3C",
"J.	c #42413F",
"K.	c #424242",
"L.	c #2F2F2F",
"M.	c #292928",
"N.	c #393939",
"O.	c #454445",
"P.	c #3F3C3C",
"Q.	c #3B3431",
"R.	c #2D2723",
"S.	c #1C1816",
"T.	c #120F0C",
"U.	c #0F0C07",
"V.	c #0C0B06",
"W.	c #080905",
"X.	c #080806",
"Y.	c #070705",
"Z.	c #060504",
"`.	c #0D0A07",
" +	c #140F0A",
".+	c #15100C",
"++	c #13110E",
"@+	c #191818",
"#+	c #292623",
"$+	c #403F3E",
"%+	c #4A4948",
"&+	c #404040",
"*+	c #343434",
"=+	c #0B0B09",
"-+	c #090907",
";+	c #1B1B1B",
">+	c #18110B",
",+	c #44270E",
"'+	c #281B0F",
")+	c #080707",
"!+	c #070706",
"~+	c #050705",
"{+	c #0F0F0E",
"]+	c #10100E",
"^+	c #0F0F0D",
"/+	c #0C0C0A",
"(+	c #040404",
"_+	c #1A140E",
":+	c #372310",
"<+	c #201B13",
"[+	c #282A27",
"}+	c #2E2E2E",
"|+	c #2B2B2B",
"1+	c #191A19",
"2+	c #23170D",
"3+	c #68430B",
"4+	c #3C270A",
"5+	c #050504",
"6+	c #070507",
"7+	c #100A0F",
"8+	c #060406",
"9+	c #11110F",
"0+	c #0F0F0F",
"a+	c #1E1E1E",
"b+	c #1A0E05",
"c+	c #4B290A",
"d+	c #2D1705",
"e+	c #120F0F",
"f+	c #191B18",
"g+	c #291B13",
"h+	c #8F5F1B",
"i+	c #705922",
"j+	c #030506",
"k+	c #0B0805",
"l+	c #1C130A",
"m+	c #0B0704",
"n+	c #101010",
"o+	c #121210",
"p+	c #030303",
"q+	c #201303",
"r+	c #5F380B",
"s+	c #3C2006",
"t+	c #101012",
"u+	c #1F1D1A",
"v+	c #312C28",
"w+	c #96671F",
"x+	c #B08F36",
"y+	c #3A3117",
"z+	c #0A0D10",
"A+	c #0D0C09",
"B+	c #0C0B0B",
"C+	c #1F180D",
"D+	c #553911",
"E+	c #503714",
"F+	c #0A0409",
"G+	c #030604",
"H+	c #050506",
"I+	c #050304",
"J+	c #070203",
"K+	c #140D05",
"L+	c #160E04",
"M+	c #050501",
"N+	c #050503",
"O+	c #060302",
"P+	c #040503",
"Q+	c #08070C",
"R+	c #43370B",
"S+	c #7B4B08",
"T+	c #462807",
"U+	c #161218",
"V+	c #1C1815",
"W+	c #242120",
"X+	c #7A5A22",
"Y+	c #D2AB38",
"Z+	c #AD9A52",
"`+	c #2E2515",
" @	c #130F0B",
".@	c #2E230F",
"+@	c #826E25",
"@@	c #BC9641",
"#@	c #795C2D",
"$@	c #130A0C",
"%@	c #070807",
"&@	c #050606",
"*@	c #462C0B",
"=@	c #553306",
"-@	c #211303",
";@	c #0C0E0F",
">@	c #080A0E",
",@	c #04090C",
"'@	c #37290D",
")@	c #936B1A",
"!@	c #9A6320",
"~@	c #2E1C0F",
"{@	c #201E19",
"]@	c #171512",
"^@	c #242223",
"/@	c #2F2416",
"(@	c #C3A859",
"_@	c #F8DC6F",
":@	c #D4BA61",
"<@	c #AA9444",
"[@	c #CBB258",
"}@	c #EBC55A",
"|@	c #D2AA64",
"1@	c #38230F",
"2@	c #272119",
"3@	c #0D080B",
"4@	c #060703",
"5@	c #432A0D",
"6@	c #B28737",
"7@	c #8D7129",
"8@	c #4A390E",
"9@	c #291C05",
"0@	c #5A4920",
"a@	c #B49635",
"b@	c #DDAE38",
"c@	c #8D6922",
"d@	c #1C1B16",
"e@	c #252524",
"f@	c #242522",
"g@	c #232220",
"h@	c #2F2921",
"i@	c #A9995D",
"j@	c #E8D581",
"k@	c #F4DD80",
"l@	c #E9D681",
"m@	c #C7AA6B",
"n@	c #53442C",
"o@	c #1F1B18",
"p@	c #3F372D",
"q@	c #120C0D",
"r@	c #090904",
"s@	c #0A0607",
"t@	c #1D1818",
"u@	c #1F1A17",
"v@	c #8F6F37",
"w@	c #E7C565",
"x@	c #E5C355",
"y@	c #D3B64F",
"z@	c #EBCC5E",
"A@	c #F7D463",
"B@	c #BF9F56",
"C@	c #2B1E15",
"D@	c #201D1A",
"E@	c #24201E",
"F@	c #1D1C1B",
"G@	c #242322",
"H@	c #2C2B29",
"I@	c #2B2A28",
"J@	c #2A2A28",
"K@	c #323232",
"L@	c #1C1B1B",
"M@	c #29231B",
"N@	c #362916",
"O@	c #5F5030",
"P@	c #493A25",
"Q@	c #332821",
"R@	c #3F382B",
"S@	c #4E443A",
"T@	c #382F2A",
"U@	c #100D08",
"V@	c #090906",
"W@	c #26221F",
"X@	c #2B2621",
"Y@	c #1F1810",
"Z@	c #725E31",
"`@	c #B89D54",
" #	c #C9B05F",
".#	c #C0AB58",
"+#	c #807041",
"@#	c #251917",
"##	c #1B1A15",
"$#	c #21201B",
"%#	c #2F2E2B",
"&#	c #2A2A2A",
"*#	c #333231",
"=#	c #383735",
"-#	c #343332",
";#	c #303030",
">#	c #2C2729",
",#	c #2D2A2C",
"'#	c #313130",
")#	c #434741",
"!#	c #5C5B56",
"~#	c #625B58",
"{#	c #5A534F",
"]#	c #27221E",
"^#	c #0A0908",
"/#	c #0B0A09",
"(#	c #3A3532",
"_#	c #58524D",
":#	c #47423D",
"<#	c #373A37",
"[#	c #272220",
"}#	c #2C1F19",
"|#	c #29221F",
"1#	c #23221F",
"2#	c #1E1F19",
"3#	c #373633",
"4#	c #353432",
"5#	c #333333",
"6#	c #41403F",
"7#	c #3C3B39",
"8#	c #3A3938",
"9#	c #363636",
"0#	c #373737",
"a#	c #323233",
"b#	c #343431",
"c#	c #38382F",
"d#	c #4F4F4C",
"e#	c #54534B",
"f#	c #585353",
"g#	c #4F4D4C",
"h#	c #1C1C18",
"i#	c #0D0909",
"j#	c #0C090A",
"k#	c #090705",
"l#	c #3E3A36",
"m#	c #59534E",
"n#	c #58504F",
"o#	c #54524C",
"p#	c #56564F",
"q#	c #474642",
"r#	c #3F3E3A",
"s#	c #343432",
"t#	c #3B3A3D",
"u#	c #454444",
"v#	c #393738",
"w#	c #3A3939",
"x#	c #2C2C2C",
"y#	c #41403E",
"z#	c #464543",
"A#	c #494748",
"B#	c #403F40",
"C#	c #333232",
"D#	c #3B3A3A",
"E#	c #4D4B49",
"F#	c #4A4946",
"G#	c #4C4C49",
"H#	c #141411",
"I#	c #0B0908",
"J#	c #10100F",
"K#	c #3C3A38",
"L#	c #575552",
"M#	c #565551",
"N#	c #5E5E58",
"O#	c #54554E",
"P#	c #555554",
"Q#	c #494949",
"R#	c #4F4F4D",
"S#	c #50504F",
"T#	c #4E4E4E",
"U#	c #393938",
"V#	c #413F3E",
"W#	c #454344",
"X#	c #4A4849",
"Y#	c #474546",
"Z#	c #383838",
"`#	c #52514F",
" $	c #484745",
".$	c #0B0907",
"+$	c #1B1A19",
"@$	c #171717",
"#$	c #131313",
"$$	c #3D3C3A",
"%$	c #5F5E5C",
"&$	c #555551",
"*$	c #5E5F5B",
"=$	c #5C5D59",
"-$	c #525250",
";$	c #4F4F4F",
">$	c #535353",
",$	c #4B4B4B",
"'$	c #3C3C3C",
")$	c #3E3D3B",
"!$	c #3B393A",
"~$	c #403E3F",
"{$	c #272727",
"]$	c #282726",
"^$	c #51504E",
"/$	c #4A4947",
"($	c #201F1D",
"_$	c #252423",
":$	c #191919",
"<$	c #454442",
"[$	c #585755",
"}$	c #5B5A59",
"|$	c #60605F",
"1$	c #595958",
"2$	c #4C4C4C",
"3$	c #515151",
"4$	c #565656",
"5$	c #595959",
"6$	c #4D4D4D",
"7$	c #505050",
"8$	c #40403F",
"9$	c #3E3E3C",
"0$	c #393836",
"a$	c #424240",
"b$	c #434341",
"c$	c #393937",
"d$	c #3B3A3B",
"e$	c #353434",
"f$	c #292728",
"g$	c #2F2F2D",
"h$	c #4D4D4B",
"i$	c #161513",
"j$	c #0A0A08",
"k$	c #0D0C0B",
"l$	c #201F1F",
"m$	c #181818",
"n$	c #070605",
"o$	c #2F2F2E",
"p$	c #4F4F4E",
"q$	c #414040",
"r$	c #302F2D",
"s$	c #3F3F3D",
"t$	c #2D2D2D",
"u$	c #313131",
"v$	c #2E2E2C",
"w$	c #30302E",
"x$	c #323230",
"y$	c #212121",
"z$	c #444444",
"A$	c #414141",
"B$	c #3F3F3F",
"C$	c #323131",
"D$	c #2C2B2B",
"E$	c #3D3C3C",
"F$	c #31302E",
"G$	c #191917",
"H$	c #1A1A18",
"I$	c #373735",
"J$	c #494846",
"K$	c #1C1B19",
"L$	c #202020",
"M$	c #141414",
"N$	c #464646",
"O$	c #3C3A3B",
"P$	c #2E2C2D",
"Q$	c #1C1C1B",
"R$	c #181816",
"S$	c #222222",
"T$	c #363634",
"U$	c #444442",
"V$	c #4C4C4A",
"W$	c #5A5A58",
"X$	c #5D5C5A",
"Y$	c #1A1A1A",
"Z$	c #151515",
"`$	c #0E0E0E",
" %	c #252525",
".%	c #272526",
"+%	c #201E1F",
"@%	c #1F1D1E",
"#%	c #1B1B19",
"$%	c #191817",
"%%	c #121212",
"&%	c #1C1C1C",
"*%	c #515150",
"=%	c #5C5C5B",
"-%	c #353533",
";%	c #1D1D1D",
">%	c #232322",
",%	c #3A3A39",
"'%	c #262626",
")%	c #4A4A4A",
"!%	c #4D4D4C",
"~%	c #161616",
"{%	c #272725",
"]%	c #383836",
"^%	c #555553",
"/%	c #5C5C5A",
"(%	c #3B3B3A",
"_%	c #141413",
":%	c #21211F",
"<%	c #31312F",
"[%	c #2E2E2D",
"}%	c #4E4E4D",
"|%	c #525252",
"1%	c #494847",
"2%	c #282826",
"3%	c #3D3D3C",
"4%	c #353534",
"5%	c #3C3C3A",
"6%	c #141412",
"7%	c #1F1F1E",
"8%	c #454545",
"9%	c #3D3D3B",
"0%	c #5A5A5A",
"a%	c #4F4E4C",
"b%	c #545351",
"c%	c #4C4B49",
"d%	c #3C3B3A",
"e%	c #333331",
"f%	c #020202",
"g%	c #3F3F3E",
"h%	c #4C4B4A",
"i%	c #565553",
"j%	c #3B3A38",
"k%	c #181715",
"l%	c #323231",
"m%	c #3E3E3D",
"n%	c #40403E",
"o%	c #454443",
"p%	c #11100F",
"q%	c #090807",
"r%	c #121110",
"s%	c #31302F",
"t%	c #30302F",
"u%	c #1E1E1C",
"v%	c #060505",
"w%	c #080708",
"x%	c #080607",
"y%	c #0B0809",
"z%	c #010101",
"A%	c #0A090A",
"B%	c #090808",
"C%	c #0B0B0A",
"D%	c #0E0C0C",
"E%	c #0F0D0D",
"F%	c #181716",
"  . + + @ # $ % & * = - ; > , ' ) . ! ~ {   ] ^ ^ ) ] ^ / ( _ : < [ } )   | 1 2 ",
"3 4 5 6 7 8 9 0 a b c d ; > e f g   + h h h ^ g i ) ) j k l m n o p ! . q ~ r r ",
"s t u v w x y z A B C D E , F G H ] ] ] ) ] g H i i ^ i I J K L M N O P Q R S T ",
"U V W X Y Z `  ...+.@.#.$.%.&.*.=.- -.;.;.;.>.,.k g i i '.).!.~.{.].^.4 P /.(._.",
":.<.[.}.|.1.2.3.4.5.6.; 7.i g =.2 r 8.9.8.9.1 0.a.H g i ) m b.c.d.e.f.P g.h.i.j.",
"k.l.m.n.o.p.q.r.s.t.u.v.^ g w.x.y.r r 9.9.z.2 0.0.A.w.H ] B.C.D.E.F.G.H.I.J.K.L.",
"M.N.O.P.Q.R.S.T.T.U.V.W.X.,.Y.x.y.z.- ;.;.z.2 0.0.X.,.Z.^ `. +.+++T @+#+$+%+&+*+",
"=+-+;+>+,+'+i.8.2 )+!+~+0.a.0.0.y.r {+]+^+/+2 0.0.a.0.(+(+a.y.y.S j._+:+<+[+}+|+",
"X.X.1+2+3+4+a.0.0.5+6+7+8+(+0.0.y.8.T 9+]+;.2 0.0.(+(+(+(+0.(+(+0+a+b+c+d+e+y.a.",
"-+X.f+g+h+i+,.a.a.j+k+l+m+0.(+(+y.8.n+o+o+^+2 0.(+(+(+(+0.p+p+p+(+(+q+r+s+t+y.0.",
"g ) u+v+w+x+y+z+A+B+C+D+E+F+G+H+H | + ! { h 2 0.(+I+J+K+L+M+N+O+P+Q+R+S+T+U+^ H ",
"] ) V+W+X+Y+Z+`+ @.@+@@@#@$@%@!+H   ~ ! + ] 2 0.(+N+&@*@=@-@;@>@,@'@)@!@~@{@{ i ",
"~ ~ ]@^@/@(@_@:@<@[@}@|@1@2@3@4@w.] + +   ] 2 0.0.Y.8.5@6@7@8@9@0@a@b@c@d@W+8 + ",
"6 P e@f@g@h@i@j@k@l@m@n@o@p@q@r@g ) h ) h ] 2 0.0.s@t@u@v@w@x@y@z@A@B@C@D@E@F@G@",
"H@I@J@K@j.L@M@N@O@P@Q@R@S@T@U@V@g ^ ] ) ) ) 2 0.a.g W@X@Y@Z@`@ #.#+#@###$#%#|+&#",
"*#=#-#;#<.L.>#,#'#)#!#~#{#]#&.^#i )   ] ^ /#y.a.a.i (#_#:#<#[#}#|#1#2#H.3#4#5#}+",
"6#7#8#9#0#N.a#b#c#d#e#f#g#h#i#j#) ] h ] ) i 2 y.y.k#l#m#n#o#p#q#r#s#t#u#v#w#x#;#",
"y#z#W A#A#B#[.*+C#D#E#F#G#H#I#g ) h ]+r J#r 1 y.y.g K#L#M#N#O#P#Q#R#S#T#T#U#$+J.",
"I.7#V#W#X#Y#[.Z#5#h.J.`# $. .$H ^ { +$8.@$#$z.y.y.g $$%$&$*$=$-$;$>$,$&+'$'$u g.",
")$8#y#!$v#~$'$Z#{$]$u ^$/$. ^ g ^ ($_$@$&#:$r y.y.H <$[$}$|$1$2$3$4$5$6$7$8$9$0$",
"a$b$c$d$e$f$L.L.&#g$0$h$=#i$) j$k$l$M.:$L.m$z.y.y.n$o$p$>$3$3$2$>$T#,$B#&+q$I.r$",
"s#s$8$t${$x#u$K@x#v$w$x$H@R . /#r _.{$#$y$n+z.2 y.a.:$z$A$2$A$A$B$i.C$D$!$E$F$H.",
"G$# H$;+j.j.&#&#K@I$h.I$J$/$K$- r L$_.M$S 0+z.1 z.2 m$0#[.N$l.'$5#B$e$O$P$^@5 H@",
"Q$G$R$_._.(.S$:.x#T$U$V$W$X$($]+r m$Y$Z$_.8.z.z.9.`$*+K.B$N.<.N.K@ %{$.%+%@%#%$%",
"0+0+9.`$M$#$%%%%&%x#'$Q#*%=%-%^+z.Z$;%%%a+n+z.z.M$>%-%c$,%}+:.'%S Z$#$M$#$r `$T ",
"t$|+j.'%S$Y$%%0+:.B$)%2$!%W$-%d `$L$_.T ~%`$0+`$`${%]%T$o$u$a+n+9.1 y.y.0.a.y.r ",
"*+;#(.;+m$Y$(.}+Q#,$)%;$^%/%(%_%_.}+Y$~%M$m$~%8.r :%<%v$t${${$Y$8.`$0+;+L.j.:.&#",
"y.a.@$y$ %'%[%}%1$|%A$)%1$W$1%2%h.3%4%5%<%v$_$$%6%7%5%s#t$&#L.u$t$x#:.;+y.r ~%a+",
"[.B$l.8%8%[%s#9%b$2$0%2$-$a%b%)$0$J$/$c%<$d%H@g@$%[%s$e%'%t$0#Z#L.~%n+y.a.0.f%f%",
"'$N.'%:.*+k.g%9%s#u$i.K.h%`#i%j%4 7 g.0$7 k%. ] 8 ]%I$5%*+K@'%S$a+:$Z$&%;%&%a+S ",
";#0#u$j.m$L.l%v$]%m%&+[.d%n%o%*#R p%i$+ ! q%Z.r%s%I$t%u%S$L$x#|+u$K@K@|+1 9.0+m$",
"`$&%0#<.*+S$j.x#y$S 5#K.B$Z#t$&#a+r a.a.a.y.%%_.(.(.S$(.S _._.#$L$S$y$m$&#u$t$_.",
"*+u$#$2 |+u$;%~%y$:.&#y$S$u$:.S$a+T (+p+p+z.n+@$:$;+#$Z$~%Z$;%%%y.2 (+@$&%:$8.S ",
"@$1 }+u$~%9.8.y.'%{$L$y$@$@$Y$;%&%%%2 p+0.8.T M$@$T 0+8.`$;+;%y$&%8.a.a.0.p+`$r ",
"{$5#:$p+p+(+@$S$n+&#@$m$0+:$M$#$Y$`$0.(+2 `$`$z.z.1 8.T n+a.(+`$n+:$@$0.a.y.v%w%",
"&%y.(+p+1 ;+M$(+ %S$;+@$0+8.n+T :$9.p+f%0.8.`$Z$1 a.a.y.9.p+0.(+a.`$8.n+a.0.x%y%",
"(+p+(+`$n+z%(+m$:.T &%8.2 z.1 y.a.(+(+(+p+2 0.8.a.(+p+f%(+p+(+r y.r a.1 8.A%x%x%",
"(+(+a.p+p+p+a.(.~%r ;+(+z.z.z.y.y.0.0.(+(+f%0.p+(+0.(+f%p+p+p+5+;.B%k Z.C%J#D%E%",
"p+p+p+p+p+p+_.:$9.:$(+(+y.a.0.a.(+a.(+p+p+p+(+(+p+0.p+f%f%1 (+x.w.!   H H g ! + ",
"a.0.(+p+p+z.&%~%p+Z$f%f%p+f%p+(+(+(+(+p+p+p+(+0.0.(+f%p+f%M$0.q%.$^ + F%) ] ! k%"};
