/* XPM */
static char * collect_xpm[] = {
"32 32 8 1",
" 	c None",
".	c #DB60B4",
"+	c #A94092",
"@	c #ED8CCA",
"#	c #F9B0D3",
"$	c #97593B",
"%	c #CF9E45",
"&	c #F3DA54",
"                                ",
"                                ",
"                                ",
"                                ",
"                                ",
"                                ",
"                                ",
"            ..    ..            ",
"           +@@ .. @@+           ",
"           +@@.##.@@+           ",
"          ...@+##+@...          ",
"        ++.@@.+##+.@@.++        ",
"       .@@.@##.@@.##@.@@.       ",
"       .@@@.###$$###.@@@.       ",
"         .++.#%&&%#.++.         ",
"        .###@$&&&&$@###.        ",
"        .###@$&&&&$@###.        ",
"         .++.#%&&%#.++.         ",
"       .@@@.###$$###.@@@.       ",
"       .@@.@##.@@.##@.@@.       ",
"        ++.@@.+##+.@@.++        ",
"          ...@+##+@...          ",
"           +@@.##.@@+           ",
"           +@@ .. @@+           ",
"            ..    ..            ",
"                                ",
"                                ",
"                                ",
"                                ",
"                                ",
"                                ",
"                                "};
