/* XPM */
static char * player_xpm[] = {
"32 32 11 1",
" 	c None",
".	c #942C17",
"+	c #BE640F",
"@	c #B6491B",
"#	c #740722",
"$	c #5E0832",
"%	c #250618",
"&	c #1E4927",
"*	c #3A5924",
"=	c #526926",
"-	c #73720B",
"                                ",
"                                ",
"                                ",
"                                ",
"                                ",
"                                ",
"                                ",
"             ....               ",
"            .++@#..             ",
"           .+@##@@@.            ",
"           .+$#...@@.           ",
"          .@+$#%%$$$.           ",
"          .@@...%%$@$.          ",
"          $@.@++.%@@+.          ",
"           .$@@++.@+@.          ",
"            $.@@@@.@@#          ",
"             $@#@@#@#           ",
"              $$$$##            ",
"               &&               ",
"               &**              ",
"                **              ",
"                *=              ",
"        ==      ==              ",
"        =-=  =  =-   *==        ",
"        =-=  -= =-  *---=       ",
"         =-= --*== *-*--=       ",
"         *-=*=-*==*=*&==*       ",
"        =*=-**-*=**=& &&        ",
"        =-*=&*=&=*=&            ",
"        *--*&&=&**=&            ",
"         *--=&=&&*=&            ",
"          *==&*&&&*&            "};
