/* XPM */
static char * player2_xpm[] = {
"32 32 11 1",
" 	c None",
".	c #648031",
"+	c #7B9237",
"@	c #25582F",
"#	c #436A2D",
"$	c #735B3D",
"%	c #9F7E4E",
"&	c #8A6D43",
"*	c #5E4F3D",
"=	c #58823D",
"-	c #4C4339",
"                                ",
"                                ",
"                                ",
"                                ",
"                                ",
"                    .....       ",
"      ....         .++++.       ",
"      .+++.       @++.++.       ",
"      #++.+.     @#.#++.#       ",
"      #.++#.#    @##...@        ",
"       @.+.##$$ $%%##@@         ",
"        @###@$%$%&&@@           ",
"         @@@@$%&&&              ",
"             *%%&               ",
"             *&%&*              ",
"              *&&*    ====      ",
"               *&*   =+++=      ",
"               *$*  #=#++=      ",
"               -$* @#@===#      ",
"               -&* @@###@       ",
"               -&$%%@@@@        ",
"              -$&%&*            ",
"              -&&&*             ",
"              -&&-              ",
"              -&$-              ",
"            **-$$-              ",
"            -$*$&&$             ",
"             -$&&$*             ",
"             -$$*-              ",
"            -*$*-               ",
"            -**-                ",
"           --**-                "};
