/* XPM */
static char * test_xpm[] = {
"32 32 12 1",
" 	c #7C603A",
".	c #A58D4D",
"+	c #8D6E40",
"@	c #A4884D",
"#	c #2E2922",
"$	c #9F814B",
"%	c #494233",
"&	c #383229",
"*	c #2A251F",
"=	c #987946",
"-	c #927343",
";	c #6E5233",
" ..+..+@@@@@@@@@@@@@@@@@@+.#### ",
" ..+..+$$$$$$$$$$$$$$$$$$+.#%%# ",
" ..+..+$$$$$$$$$$$$$$$$$$+.#%%# ",
" ..+..+$++++++++++++++++$+.#&&# ",
" ..+..+$+$$$$$$$$$$$$$$+$+.*&&* ",
" @.+.@+$+$............$+$+.*##* ",
" @@+@@+$+$.$$$$$$$$$$.$+$+@**** ",
" @@+@@+$+$.$$$$$$$$$$.$+$+@*##* ",
" @@+@@+$+$.$$$$$$$$$$.$+$+@++++ ",
" @@+@@+$+$.$$$$$$$$$$.$+$+@$+$$ ",
" @@+@@+$+$@$$$$$$$$$$@$+$+@@+@@ ",
" @@+@@+$+$@$$$$$$$$$$@$+$+@@+@@ ",
" @@+@@+$+$@$$$$$$$$$$@$+$+@@+@@ ",
" @@+@@+$+$@$$$$$$$$$$@$+$+@@+@@ ",
" @@+@@+$+$@$$$=$$$$$=@$+$+@@+@@ ",
" @@+@@+$ $@$$===$$$==@$ $+@@+@@ ",
" @@+@@+$ $@$$$===$$==@= $+@@+@@ ",
" @@+@@+$ $@$$====$$==$= $+@@+@@ ",
" @@+@@+$ $@$$$=$$$===$= $+@@+@@ ",
" @@+@@+$ $@$$$$$$===-$= =+@@+@@ ",
" $@+@$+$ $@$$$$$===--$- =+$@+@$ ",
" $$+$=+$ $@@@@@@@$$$$$- =+$$+$$ ",
" $$+==+= $++++++++++++- = $=+$$ ",
" $$+==+=                = ==+=$ ",
" $=+=-+==$$$====+++++++== -= == ",
" ==+--                    -- == ",
" ==+---=@@......@@$$$====--- == ",
" $=+-==$@@@....@@$$===------ -= ",
" $$+++++++++++++++++         -= ",
" $$$$$$$$@@@@......@@==-------= ",
" $$$$$$$$$$$$$$$$$$$====------= ",
";;;;;;;;;;;;;;;;;;;;;;;;;;;;;;;;"};
