/* XPM */
static char * floor_xpm[] = {
"32 32 9 1",
" 	c #564E3E",
".	c #4E4636",
"+	c #433C30",
"@	c #6C6046",
"#	c #897757",
"$	c #9D8A63",
"%	c #2E281D",
"&	c #5D5440",
"*	c #917F5E",
"   .++++++....++++++++   .++++++",
"                @@@@@..+++      ",
"####@@   @###$$$##@@######@@@   ",
"                                ",
"#@@#######@@   @###$$$##@@######",
"@@@@@@@@@@@   @@@@    @@@@@@@@@@",
"++++++++++++++++++++++++++++++++",
"        ......... %%%%% ......  ",
"   @@@@  @@@@@@@& %%%%% @@@@@   ",
" @@@@@@@ @@@@@###*%%%%%*$##@@@ @",
"                 *+++++*        ",
"@@@@    @@####@ **$$$##*@@ @@@@@",
".....+++++......++++++.....+++++",
"                @@@@@..+++      ",
"####@@   @###$$$##@@######@@@   ",
"                                ",
"#@@#######@@   @###$$$##@@######",
"@@@@@@@@@@@   @@@@    @@@@@@@@@@",
"+++++....++..++++++...+++++.....",
"      ..........     .......  @@",
" @@@@ %%%%%% @&&    &@@@@@@   @@",
"@@@@@ %%%%%%@###@ **$$$##@@@ @##",
"     @%%%%%%@                 ##",
"@@   @%%%%%%@ **$$$##@@@ @@@@@@@",
"     *++++++*.....     .......  ",
"   @@****$$**@@@&&    &@@@@@@   ",
"   .++++++....++++++++   .++++++",
"                @@@@@..+++      ",
"####@@   @###$$$##@@######@@@   ",
"                                ",
"#@@#######@@   @###$$$##@@######",
"@@@@@@@@@@@   @@@@    @@@@@@@@@@"};
