/* XPM */
static char * wall_xpm[] = {
"64 64 534 2",
"  	c #6C6463",
". 	c #696262",
"+ 	c #706968",
"@ 	c #6C6464",
"# 	c #675F5F",
"$ 	c #726A6A",
"% 	c #736B6B",
"& 	c #6F6767",
"* 	c #6A6363",
"= 	c #696161",
"- 	c #686060",
"; 	c #676060",
"> 	c #6B6464",
", 	c #686161",
"' 	c #645D5D",
") 	c #665F5F",
"! 	c #6E6666",
"~ 	c #706868",
"{ 	c #6C6565",
"] 	c #6E6766",
"^ 	c #655E5D",
"/ 	c #635C5B",
"( 	c #6A6262",
"_ 	c #6B6463",
": 	c #6E6767",
"< 	c #726B6B",
"[ 	c #6C6564",
"} 	c #696261",
"| 	c #655E5E",
"1 	c #6D6565",
"2 	c #6A6362",
"3 	c #706969",
"4 	c #655E5F",
"5 	c #5E595B",
"6 	c #6F6766",
"7 	c #6F6868",
"8 	c #686160",
"9 	c #716A6A",
"0 	c #6B6363",
"a 	c #6D6665",
"b 	c #6A6263",
"c 	c #67605F",
"d 	c #746C6C",
"e 	c #766E6E",
"f 	c #6D6666",
"g 	c #746D6C",
"h 	c #726B6A",
"i 	c #635D5E",
"j 	c #736B69",
"k 	c #5F5A5C",
"l 	c #6E6664",
"m 	c #6F6765",
"n 	c #797272",
"o 	c #756E6E",
"p 	c #736B6C",
"q 	c #766F6F",
"r 	c #787071",
"s 	c #756D6E",
"t 	c #736C6C",
"u 	c #746D6D",
"v 	c #7A7272",
"w 	c #7C7474",
"x 	c #7B7474",
"y 	c #787070",
"z 	c #777070",
"A 	c #756D6D",
"B 	c #787171",
"C 	c #7F7878",
"D 	c #7F7778",
"E 	c #706869",
"F 	c #726A6B",
"G 	c #776F6F",
"H 	c #7A7373",
"I 	c #5E585B",
"J 	c #5B5659",
"K 	c #6D6563",
"L 	c #6D6667",
"M 	c #776F70",
"N 	c #746C6D",
"O 	c #807878",
"P 	c #827B7B",
"Q 	c #7C7575",
"R 	c #797171",
"S 	c #766E6F",
"T 	c #797172",
"U 	c #7D7575",
"V 	c #7F7777",
"W 	c #7B7374",
"X 	c #5D575A",
"Y 	c #595356",
"Z 	c #726A68",
"` 	c #746C6A",
" .	c #7E7676",
"..	c #7B7373",
"+.	c #71696A",
"@.	c #625D5F",
"#.	c #595457",
"$.	c #756C6A",
"%.	c #78706E",
"&.	c #7A7273",
"*.	c #605B5D",
"=.	c #786F6D",
"-.	c #7E7777",
";.	c #635E61",
">.	c #5D585B",
",.	c #746C6B",
"'.	c #716967",
").	c #7D7576",
"!.	c #807879",
"~.	c #655F62",
"{.	c #615C5F",
"].	c #6E6665",
"^.	c #645E5E",
"/.	c #726A69",
"(.	c #4A4348",
"_.	c #474045",
":.	c #464045",
"<.	c #443E42",
"[.	c #463F44",
"}.	c #494247",
"|.	c #484146",
"1.	c #3F393E",
"2.	c #433B3F",
"3.	c #494144",
"4.	c #4A4245",
"5.	c #4D454A",
"6.	c #4E474C",
"7.	c #51494E",
"8.	c #4D464B",
"9.	c #4B4449",
"0.	c #413B40",
"a.	c #3F393F",
"b.	c #433C3F",
"c.	c #484246",
"d.	c #474145",
"e.	c #464044",
"f.	c #453F43",
"g.	c #453E43",
"h.	c #3A353B",
"i.	c #383339",
"j.	c #403A3F",
"k.	c #443D40",
"l.	c #4B4346",
"m.	c #51484C",
"n.	c #50474B",
"o.	c #484145",
"p.	c #3E383E",
"q.	c #40393D",
"r.	c #413B3F",
"s.	c #443D42",
"t.	c #4D454B",
"u.	c #4F484D",
"v.	c #4C454A",
"w.	c #453F44",
"x.	c #443E43",
"y.	c #403A3D",
"z.	c #4D4548",
"A.	c #4A4246",
"B.	c #50494E",
"C.	c #544D52",
"D.	c #534B51",
"E.	c #554D53",
"F.	c #544C52",
"G.	c #5A5258",
"H.	c #5C545A",
"I.	c #4F474D",
"J.	c #3B363D",
"K.	c #433D42",
"L.	c #3C373C",
"M.	c #343035",
"N.	c #4C4447",
"O.	c #50484C",
"P.	c #564D52",
"Q.	c #595157",
"R.	c #564E54",
"S.	c #554D52",
"T.	c #403A40",
"U.	c #3B363B",
"V.	c #453E42",
"W.	c #3E383D",
"X.	c #50484B",
"Y.	c #534B4F",
"Z.	c #534B50",
"`.	c #51494F",
" +	c #575055",
".+	c #554E53",
"++	c #585056",
"@+	c #494349",
"#+	c #3E3940",
"$+	c #484247",
"%+	c #353035",
"&+	c #3F383B",
"*+	c #51494C",
"=+	c #544B4F",
"-+	c #5A5257",
";+	c #585055",
">+	c #524B50",
",+	c #453E44",
"'+	c #373237",
")+	c #423C40",
"!+	c #4E464C",
"~+	c #433C41",
"{+	c #4F464A",
"]+	c #544C51",
"^+	c #514A4F",
"/+	c #3C373E",
"(+	c #4A4448",
"_+	c #494347",
":+	c #332E32",
"<+	c #534B4E",
"[+	c #5E565C",
"}+	c #534C51",
"|+	c #474146",
"1+	c #393439",
"2+	c #423B40",
"3+	c #423C41",
"4+	c #3D373B",
"5+	c #3C363A",
"6+	c #383337",
"7+	c #544C50",
"8+	c #524A50",
"9+	c #50484D",
"0+	c #574F54",
"a+	c #3D383F",
"b+	c #3F3A3F",
"c+	c #4B454A",
"d+	c #463E41",
"e+	c #5B5359",
"f+	c #574F55",
"g+	c #4E464B",
"h+	c #3F393D",
"i+	c #3E383C",
"j+	c #3E383B",
"k+	c #363135",
"l+	c #3D373A",
"m+	c #3F383C",
"n+	c #353136",
"o+	c #353036",
"p+	c #564E53",
"q+	c #524A4F",
"r+	c #413B42",
"s+	c #4D4547",
"t+	c #4B4448",
"u+	c #3E373A",
"v+	c #40393C",
"w+	c #423B3F",
"x+	c #3C363B",
"y+	c #3B353A",
"z+	c #3E373B",
"A+	c #433D41",
"B+	c #403A3E",
"C+	c #342F34",
"D+	c #312D32",
"E+	c #302B30",
"F+	c #463F42",
"G+	c #50484E",
"H+	c #4C464B",
"I+	c #343036",
"J+	c #4D464A",
"K+	c #3E393F",
"L+	c #3D3739",
"M+	c #443D41",
"N+	c #474044",
"O+	c #413A3F",
"P+	c #332F33",
"Q+	c #2F2B30",
"R+	c #433B3E",
"S+	c #514A50",
"T+	c #373239",
"U+	c #3B3539",
"V+	c #51494D",
"W+	c #564F54",
"X+	c #3D373C",
"Y+	c #413A3D",
"Z+	c #3D383C",
"`+	c #2D292E",
" @	c #5C5459",
".@	c #4A444A",
"+@	c #352F32",
"@@	c #4A4347",
"#@	c #3B363A",
"$@	c #4E4649",
"%@	c #5D545A",
"&@	c #4F474C",
"*@	c #3C3639",
"=@	c #3F383A",
"-@	c #413A3E",
";@	c #3A3438",
">@	c #2E2A30",
",@	c #302C32",
"'@	c #302B2D",
")@	c #433C40",
"!@	c #40393B",
"~@	c #3A3439",
"{@	c #353034",
"]@	c #363035",
"^@	c #342E32",
"/@	c #433C3E",
"(@	c #5E555B",
"_@	c #3B3436",
":@	c #322E34",
"<@	c #322E33",
"[@	c #4C444A",
"}@	c #4E474D",
"|@	c #353137",
"1@	c #222022",
"2@	c #2D282A",
"3@	c #41393C",
"4@	c #494145",
"5@	c #443C40",
"6@	c #423B3E",
"7@	c #342F33",
"8@	c #3D363A",
"9@	c #3E373C",
"0@	c #363136",
"a@	c #5D555B",
"b@	c #5D555A",
"c@	c #484147",
"d@	c #3E3739",
"e@	c #3A343A",
"f@	c #39343B",
"g@	c #494143",
"h@	c #494246",
"i@	c #393337",
"j@	c #322D31",
"k@	c #2F2B2F",
"l@	c #302C31",
"m@	c #40393E",
"n@	c #3A353A",
"o@	c #312D33",
"p@	c #3B3437",
"q@	c #363134",
"r@	c #3C373B",
"s@	c #2B282C",
"t@	c #2C292E",
"u@	c #423B3D",
"v@	c #312D31",
"w@	c #3B363C",
"x@	c #2F2C31",
"y@	c #282529",
"z@	c #453E41",
"A@	c #373236",
"B@	c #3B3537",
"C@	c #2A272C",
"D@	c #353033",
"E@	c #363138",
"F@	c #484248",
"G@	c #4C4549",
"H@	c #3D3639",
"I@	c #423C42",
"J@	c #312C2F",
"K@	c #3C3638",
"L@	c #3C373A",
"M@	c #393438",
"N@	c #3A3539",
"O@	c #3F393C",
"P@	c #3A3436",
"Q@	c #393338",
"R@	c #413A3C",
"S@	c #332F36",
"T@	c #484043",
"U@	c #3B3538",
"V@	c #373136",
"W@	c #272428",
"X@	c #312C2D",
"Y@	c #3A3336",
"Z@	c #383336",
"`@	c #383236",
" #	c #3A3538",
".#	c #383237",
"+#	c #3D3638",
"@#	c #2F2B31",
"##	c #352F31",
"$#	c #342F32",
"%#	c #363034",
"&#	c #423A3D",
"*#	c #3F383D",
"=#	c #302B31",
"-#	c #373134",
";#	c #3B3639",
">#	c #3F393B",
",#	c #383235",
"'#	c #3C3538",
")#	c #322E32",
"!#	c #2E2A2F",
"~#	c #463F43",
"{#	c #383338",
"]#	c #3D373D",
"^#	c #3B353B",
"/#	c #393437",
"(#	c #4B4347",
"_#	c #252227",
":#	c #3A3335",
"<#	c #393335",
"[#	c #332E33",
"}#	c #332F34",
"|#	c #2D282B",
"1#	c #363033",
"2#	c #474046",
"3#	c #463F45",
"4#	c #3A3437",
"5#	c #373133",
"6#	c #383234",
"7#	c #473F42",
"8#	c #232023",
"9#	c #2B2729",
"0#	c #312C2E",
"a#	c #4D4549",
"b#	c #423C43",
"c#	c #433D43",
"d#	c #312C30",
"e#	c #4C4449",
"f#	c #50494F",
"g#	c #474147",
"h#	c #403A41",
"i#	c #453D40",
"j#	c #39343A",
"k#	c #524A4E",
"l#	c #4A4247",
"m#	c #484045",
"n#	c #595156",
"o#	c #4B454B",
"p#	c #433C42",
"q#	c #443C3F",
"r#	c #564E51",
"s#	c #494248",
"t#	c #373235",
"u#	c #2E292C",
"v#	c #544C4F",
"w#	c #5E565B",
"x#	c #373135",
"y#	c #2B272C",
"z#	c #292426",
"A#	c #524A4D",
"B#	c #2B272A",
"C#	c #342E31",
"D#	c #2E2A2E",
"E#	c #3C3537",
"F#	c #39353B",
"G#	c #2F2B2E",
"H#	c #2E2A2D",
"I#	c #29252A",
"J#	c #554C50",
"K#	c #2D292C",
"L#	c #332E31",
"M#	c #585053",
"N#	c #3D383E",
"O#	c #342F31",
"P#	c #363032",
"Q#	c #4E474B",
"R#	c #464046",
"S#	c #373339",
"T#	c #38343A",
"U#	c #332E30",
"V#	c #302C30",
"W#	c #363137",
"X#	c #373238",
"Y#	c #423C3F",
"Z#	c #4F474A",
"`#	c #4A434A",
" $	c #2D2A2F",
".$	c #2C272B",
"+$	c #534A4D",
"@$	c #4E464A",
"#$	c #49434A",
"$$	c #3F3940",
"%$	c #3F3A41",
"&$	c #342F35",
"*$	c #322D33",
"=$	c #2D292D",
"-$	c #3E383A",
";$	c #4D4448",
">$	c #4F474B",
",$	c #443E45",
"'$	c #3C373D",
")$	c #4A4244",
"!$	c #443D3F",
"~$	c #3C363C",
"{$	c #332E34",
"]$	c #4E4549",
"^$	c #554C51",
"/$	c #413B41",
"($	c #3D383D",
"_$	c #312C32",
":$	c #52494C",
"<$	c #50474A",
"[$	c #524B51",
"}$	c #443E44",
"|$	c #473F43",
"1$	c #393235",
"2$	c #463E40",
"3$	c #494245",
"4$	c #52494D",
"5$	c #584F54",
"6$	c #4C4548",
"7$	c #453E40",
"8$	c #4C4448",
"9$	c #453F45",
"0$	c #484144",
"a$	c #534A4E",
"b$	c #2F2A2F",
"c$	c #4A4346",
"d$	c #3A353C",
"e$	c #2C282C",
"f$	c #3B3438",
"g$	c #474042",
"h$	c #4F484C",
"i$	c #463F41",
"j$	c #302D33",
"k$	c #272427",
"l$	c #332D30",
"m$	c #383134",
"n$	c #5B5358",
"o$	c #494244",
"p$	c #211E21",
"q$	c #342E30",
"r$	c #4B4345",
"s$	c #413B3E",
"t$	c #332F35",
"u$	c #4D464C",
"v$	c #443D43",
"w$	c #473F44",
"x$	c #201D1E",
"y$	c #262223",
"z$	c #302C33",
"A$	c #544D53",
"B$	c #363238",
"C$	c #171516",
"D$	c #262224",
"E$	c #4B4348",
"F$	c #38333A",
"G$	c #262327",
"H$	c #211D1E",
"I$	c #473F41",
"    . + @ # . $ % & * = = * - = ; > = , . = ' ) ! ~ { ~ ] ^ / ( @ . > _ ( ! : & < % [ ; ; } ! > ) | ] ~ ~ : 1 @ 2 { [ 3 + ! 4 5 ",
"6 . : 7 > 8 . 9 $ 7 } . _ 0 2 ) = . * * a > ; . @ > b 1 + > # ; , * = , c , ~ d e % : = - > f ] > * g ~ & { ( { + { . ! h h = i ",
"j   . + @ # . $ % & * = = * - = ; > = , . = ' ) ! ~ { ~ ] ^ / ( @ . > _ ( ! : & < % [ ; ; } ! > ) | ] ~ ~ : 1 @ 2 { [ 3 + ! 4 k ",
"l m 7 n n o p q r s t u t o q d < v w q u $ 7 u v x r y z 3 9 q q u A q o o B w C D y 3 E t o B o t u q t F t A u A G H v q I J ",
"K m L o x H A t z n r u % e M o N O P Q n R F t q z S q n o q T e o s q e o U V e o t : d u u x n q u G o A G z s G o q W M X Y ",
"Z ` 9 B T H o z x H z B o < F t < w  .H B ..B u < : < z R B q y o r u o y o x ..t N +.7 < t < e B u u H G z B q T W q z C Q @.#.",
"$.%.B Q G o < o z G e B B t 9 9 < A q z y w n S 9 9 d y x y o n x H z q &.e o q z o d o e S y G n y u U U G R q w ..T y B u *.5 ",
"` =.v &.z q 9 o e A u t q t u o q u t G H -.x z F N M z n u q U x y u < u e t o e 9 $ N o q z R n x G R C  .Q Q v B R H z u ;.>.",
"$.%.B Q G o < o z G e B B t 9 9 < A q z y w n S 9 9 d y x y o n x H z q &.e o q z o d o e S y G n y u U U G R q w ..T y B u *.5 ",
"` =.v &.z q 9 o e A u t q t u o q u t G H -.x z F N M z n u q U x y u < u e t o e 9 $ N o q z R n x G R C  .Q Q v B R H z u ;.>.",
",.'.o x y A o p 3 < 3 < t t A z v y t t A n n z < A G S q o o x z z D ).n G < t t 9 9 d < u z q q Q n q x C !.n A B n U B A ~.{.",
"].. : n n o p q r s t u t o q d < v w q u $ 7 u v x r y z 3 9 q q u A q o o B w C D y 3 E t o B o t u q t F t A u A G H v q = ^.",
"/.  . o x H A t z n r u % e M o N O P Q n R F t q z S q n o q T e o s q e o U V e o t : d u u x n q u G o A G z s G o q W M 4 k ",
"6 . : B T H o z x H z B o < F t < w  .H B ..B u < : < z R B q y o r u o y o x ..t N +.7 < t < e B u u H G z B q T W q z C Q = i ",
"Z   . Q G o < o z G e B B t 9 9 < A q z y w n S 9 9 d y x y o n x H z q &.e o q z o d o e S y G n y u U U G R q w ..T y B u 4 k ",
"6 . : 7 0 , . 9 $ 7 } . _ 0 2 ; = , . * a { , . @ * . 1 + > - ; , * = ; ) , ~ d e % : = - > f ] > > g ~ ~ f 0 f + { * ! h h = i ",
"Z   . + @ # . $ % & * = = * - = ; > = , . = ' ) ! ~ { ~ ] ^ / ( @ . > _ ( ! : & < % [ ; ; } ! > ) | ] ~ ~ : 1 @ 2 { [ 3 + ! 4 5 ",
"(._.:.<.[.}.|.1.2.3.4.5.6.7.8.(.[._.9.}.0.a.b._.9.c.(.}.d._.}.|.[.}.9.}.e.f.g.h.i.j.3.k.l.m.n.o._.j.p.q.f.r.j.s.e.8.9.(._.t.u.v.",
"w.g.s.g.}.(.x.y.z.A.B.C.B.D.E.D.F.G.H.E.I.J.j._.9.9.d.}.(.(.[.K.<.|.|.}.|.[.f.L.M.3.l.N.O.P.Q.R.S.6.T.U.V.[.<.[.[.d.|.s.[.6.8.|.",
"f.e.s.}.8.9.W.X.Y.C.Z.D.`.E.R.E.C. +F..+++@+#+[.(.9._.|.9.8.c.g.[._._.$+|.d.g.%+&+*+=+Q.-+Q.;+R.E.>+B.,+'+j.g.|.c.[.r.)+d.!+v.e.",
"_.|.[.(.(.}.~+{+E.-+E.B.u.]+R.^+>+E.B.u.B.B./+0.9.(+(.(.8.9.(._+}.(.(.(.9.9.<.:+3.<+[+[+H.R.R.++R.}+u.6.|+1+1.w.|.[.~+r.2+3+)+g.",
"4+5+6+K.(.(.o.7+E. +R.8+`.>+C.9+E.0+^+v.6.B.a+b+c+6.v.(.9.|.w._.d.|._.(.9.8.}.d+N.^+Q.H.e+F.S.f+C.8+v.v.}.g+a.h+[._.~+i+j+k+i+l+",
"m+1.n+o+)+(.o.p+E.R.D.B.B.v.>+8+}+F.u.6.q+D.r+h.}.!+u.v.|.(.(+_+|.<.f._.|.v.g.s+A.6.R..+}+D.}+R.D.7.6.v.8+S.6.p.9.t+u+v+w+x+y+z+",
"A+B+C+D+E+s.F+]+}+E.`.B.8+G+8+R.F.>+u.u.}+E.H+I+s.9.I.u.8.u.u.8.(.s.g.g.(.J+k.4.v.6.^+]+F.D.>+`.B.8+9+v.^+E.F.K+V.L+u+M+N+d.|.e.",
"2+O+B+P+Q+Q+R+q+R.E.`.`.>+^+f+G.++f+F.B.p+f+S+T+U+x.}.!+8.8.8.}.|.x.K.<.(.[.4.V+}+.+F.>+8+9+8+6.v.6.u.8.D.W+S.X+&+Y+B+r.)+)+~+A+",
"h+Z+h+4+E+`+m+8+.+.+>+B.8+.+G.[+G.++E.}+ @H..@T++@s._.@@N+b.b.%+X+r.s.w.9.#@$@0+Q.%@G.}+>+&@6.6.9.}.8.u.F.Q.E.*@=@-@O+)+)+r.O+O+",
"h+;@Z+B+5+>@2+8+>+f+]+8+D.f+.+f+C.D.^+}+H.e+J.,@'@l+)@F+k.!@k.~@k+m+*@{@]@^@/@S.(@(@Q.B.Z.u.8.v.(.v.6.>+p+G.S+_@l+h+2+e.g.s.~+1.",
"5+4+h+B+r.:@<@9+E.E.F.]+]+C.^+!+v.[@6.}+e+}@|@1@2@3@F+4@5@6@k.0.7@8@9@0@:+k+k+s.a@b@R.6.}+Z.B.6.6.u.>+S.Q.f+c@d@y.r.r.[.g.2+r.B+",
"i+4+h+)+)+e@|@k+u.C.F..+&@[.}._.d.}.(.G+}+f@1@w+u+g@d+q.q.M+h@}.s.9.B.}.i@j@k@l@R.++8+6.Z.E.8+C.F.>+`.q+W+++K.!@)+r.m@r.)+2+)+j.",
"r.B+1.)+r.n@o@>@p@J+o.M+)@;@q@~@h+q.z+*@r@1@s@t@u@g@b.B+e.f.[.}.(.6.B.8.f.h+v@>@w@.+^+v.u.}+F.f+C.6.B.>+E.Q.j.&+r.i+B+2+)+r.B+)+",
"W.h+4+4+i+%+x@y@o@v+z@M+v+U+A@i@y+B@i+5+6+L.C@D@/@N+_.<.(.9.9.9.}.9.v.(+9._.~+'+E@F@B.8.B.F.R.0+G@H@;@U+1.I@J@K@h+4+L@i+5+M@N@4+",
";@4+5+5+X+s@t@j+b.v+6@j+m+O@i@;@M@P@;@i@Q@U.0@:+R@_.|.|.(.(.9.5 9.9.v.v.6.(._.w.S@C+:.!+]+R.q+T@3@U@5+~@V@:+W@X@Y@4+6+Z@6+;@i@`@",
"U+r@U+ #6+C@D@k.l+*@U@B@U@i+i+y+i@l+4+6+.#.#.#:++#|.}._.|.d.(.}._+9.v.(+(.}.|.[.@###$#J@%#;@H@&#u@)@B+*#~@=#,@j@+@-#M@U+Z@M@N@;@",
";#4+5+#@<@`+u+>#p@,#'#i+h+O+)+r.5+h+)+i+4+{@%+)#8@G+9.|.|.d.|.[.d.(.}.|.|._.c._.!#L+v+7@^@i@z+&+~#e.f.|.9.{#0@]#^#^@i@r@N@ #M@/#",
"(#9.|.s.0@_#:#P@<#Y@5+0.s.)+)+h+h+1.r.B+h+U+C+[#;@6.(.|.}.(.(.<._.8.(+|.}.f.e._.)#R@k.[._.|.<.)+[.~+r.[.9.9.1.1+0@}#|#1#5+ ##@i+",
"(#}.}.|+2#3#4#5#6#U@i+2+A+)+A+)+K.~+r.r.r.4+5+M.0@9.}.g.d.v.u._.}.6.9.h@e.B+2+B+;@7#A+<.|.|.<.0.)+3+g.(.v.9.(._.'+@#8#9#0#U+m+l.",
"a#}.(.9.$+b#c#5#<#i+r.)+)+)+)+r.)+r.r.j.~+B+r.i+d#Q@[._.(.8.u.(.(.8.e#}.s.1.B+r.Y+t+}.|.}.}.e.A+)+f.d.9.v.}.A+A+i.W.(.|.~#4@o.4.",
"N.8.`.f#g#h#,+K@P@4+r.h+i+h+h+2+r.5+4+B+r.r.A+i+0@n+[.(.5.u.8.}.A+g.9.v.(.e.|.j.i#t+9.(.9.(._.[.~+g.}.6.6.c.2+~+j#h@k#l#|.m#4@4.",
"D.R.n#-+o#I@p#i+,#5+i+5+5+5+4+1.4+N@4+r.A+2+A+r.'+U.[.|.v.u.v.|.e.A+[.9.v.9.8.0@q#9.(.v.9.|.[.<.A+A+}.6.8.e.r.g.1+*+r#k#}.N+h@J+",
"R. +G.H.++s#T.0.t#i@h+4+U+5+4+4+Z+i+h+A+)+B+2+)+%+n@_+}.9.v.(.|.<.)+)+_.e.9.:.u#R@f.s.|.v.d.A+A+)+<.e.}._.B+h+f.X+m.v#}+E.F.C.0+",
".+n#w#a@ +9+v.a+x#6+4+U+4+i+i+h+O+i+4+r.B+4+B+B+`+y#w+(.g+8.|.|.[.<.[._.r.X+`+z#=@r.s.|.v.}.)+~+)+K.g.~+2+)+~+<.g.A#k#`.R.;+R.F.",
"p+Q.[+(@++`.u.J.%#i@5+5+h+h+B+1.B+Z+r@4+)+i+4+`@W@W@B#C#[.9.)@-@4+w.(.r.D#u#:+D@E#-@|.9.(.|.e.K.)+g.s.r.r.~+|.v.G@m.^+u.]+++e+f+",
"D.Q.G.G.E.F.8+F#G#;@5+4+B+B+A+<.r.i+i+i+B+i+;@H#_#I#B#o@B@'#l+l+6+i@N@;@i@`@A@N@D@u+@@(.}.c.|.g.)+[.)+g.)+d.8.v.@@J#B.8.9+C.p+8+",
"6..+E.]+B.}+]+f@F#0#U+)+~+s.}.@@~+r@h+h+Z+i+i@C@K#D@4#v+Y+u+l+z+A@Q@U+5+j+N@k+V@k+L#N+}.|.[.<.f.d.}.}.v.x.c.v.}.G@M#S.8+>+W+W+u.",
"u.8+8+B.8.B.u.N#/+n+O#B+~+A+|.}.g.h+4+h+4+4+l@-#4#i@4+V.k.Y+q.z+x+y+5+z+w+r@.#0@n+M.P#~#f.)+M+@@(.v.Q#&@F@R#v._.-@X.C.D.>+G.f+>+",
"B.^+D.q+>+8+`.2#S#T#U#B@4+i+r.g.f.h+B+r.h+D+V#v+v+;@m+M+k.y.i+4+B+i+q.V.<.X+A@C+W#X#|#P#Y#v+Z#l#[.N+t+G+`#R#c#'+Y+N.p+0+++n#D.`.",
"^+}+E.E.0+C.F..@J.~@'#u+U@4+5+H@'#{@{#W.D+ $u+&+R@j+4+m+B+B+O+B+A+2+0.<.A+B+'+D+X#%+.$H@N.m.+$@$9.8.^+8+#$R#$$w@<#d+7.n#.+^+B.`.",
"8+8+S.0+R.R.C.%$O@b.z@6@j+i+m+v+u+&$*$%+%+=$q#Y+-$>#r.h+4+B+s.2+<.2+i+1.B+O+4+Q+M.4+;$@$>$k#J#f+W+F.0+H.E.,$$$'$w@Y+l..+]+I.C.E.",
"B.^+F.}+F.p+@+5+)$!$k.N+@@}.|.(.|.A+7@n@~${$t#6@d@-@r.B+h+4+)+)+)+h+4+i@i@5+i+.#%+z.N.]$O.^$Z.7.B.u.R.b@H.E.h#N#N#/$w+4@Z.u.8+F.",
"9.u.!+8.3+X+0@d+4.k._.@@(.|._._+_.)+~+x.($&$_$>#H@r.)+h+i+i+h+r@i+4+/#;@M@;@r@h+y+:$<$P.n#R.B.}.c.8.S.e+G.E.[$}$h#T.]#B+|$t+_.|.",
"(._.~+s.0.A@1$2$F+}.(._.(.A+)+[.[.s.<.c.6.]#o@/#u+h+2+h+4+4+4+Z@;@4+5+h+i+#@M@;@3$4$5$H.;+8+6._.|.u..+F.q+B.]+R.s#/$h#W.A.@$_.h@",
"(.f.~+m@O+,+[.~+o.9.9._.:.h+1.<.~+2+f.|.8.(.,@`@4+4+i+4+4+i+#@Z@#@4+B+)+i+U+Z@z@z.>$q+++G.E.I.g+8.B.W+q+v.6.^+C.8+6.p.(#6$@$}.}.",
"~#|.s.B+i+3+3+j.d.(._.g._.A+s.c.e.A+f.}.v.(.%+k+h+5+x#;@4+i+4+U+i+h+A+g.O+4+v+7$8$`.`.`.}+0+R.^+B.>+^+I.v.u.F.D.^+,+N+k#O.a#N+<.",
"~#}.g.h+W.0.]#p.}.v.|.9.9._.e.}.9._+(.v.G@|.W.%+r.5+q@`@i+r.i+4+h+O+w.e.~+B+*@Y+F.p+C.p+F.}+R.n#}+C.`.v.B.>+F.F.C.[.Y.V+6$4@M+A+",
"}.c.f.O+j.T.p.p.|+&@v.B.g+(.}.}.5.v.9.(.9.9.x.}#B+i+i@;@B+A+B+i+B+0.~+<.r.B+B+'#g+0+R.;+.+^+^+G..+S.>+6.0+++f+;+Z.V+7+O.N+[.g._.",
"|._.g.x.g.w.}$#+9$B.8.8.6.v.v.v.u.8.v.|.|._._.{$B+r.U+L@B+A+)+B+h+B+~+r.4+4+l+i#0$R.}+`.>+]+B.;+R.]+7.^+.+e+Q.W+@$a$>$l#d.|._.|.",
"f.e.e.(.}._.R#%$N#8.8.9.}.c.}.6.v.(.9.d.<.s.U.b$U+B+i+5+h+r.O+B+4+i+B+O+U+5#P@/@4+%+3+5..+R.F.E..+q+6.}+0+H.n#^+7#c$(.c.}.|._.[.",
"d.|.(.9.@@}.s.d$d$}.v._.g.s.|.|._._.|._.A+0.,@e$,#h+B+r@i+h+B+;@-#1#2.z+*@f$&#g$4+~@.#k+x+D.F.n#R.9+6.^+]+F.F.h$i$A+|.v.8.8.(.}.",
"c.d.|.}.d._.x.T#h.($8.9.[.s.f.f._.[.d.c.[.j.j$k$4#5+r.r@i+B+l+l$m$b.i#z+f$`@H@k.}.0.n@N@&$M.v.e+n$^+t.8.8.B.E.V+o$K.<.9.8.v.(.|.",
"}.8.9.}.|.e.d.b+X#o+y+8.9.c.[.|.}.(.(.(.9./$o+p$J@,#`@U+5+4#-#q$3.7#Y+Y#f.r.~+(.u.^+(.1.}#{$i.Q.a@;+>+6.5.u.F.N.|$r.)+}.9.8.v.v.",
"v.u.u.9.|.c.(._.p.n@N@h+h+l+U.$+v.I.6.8.@@~#4@a.b$J@x#C#$###0#u@r$7$s$_.9.}.g.}.B.6.e.A+h+l@t$u$G.-+F.8+u.`.9+l.h@}._+|.}.8.B.8.",
"v.(.@@|.d.c.9.[.W.4+q.m+B+4+~@x+9.V+@$A.3$z.t+c#v$w$~+}#x$y$2@2$7#~#)+A+e._.<.f.9.9.[.m@)+i.z$K+A$f+F.`.5.I.@@i#v.v.6.9.9.6.u.(+",
"}.e.<.g.~+f.A+4+,#4#i+r.y.5+y+L.0.9+8$o.4@m.>+9$[.m#X+B$I#C$D$T@b.g.A+|.c.|.g.f.|.}._.d.[.3+@#E@F@u$8+G+u.F.~#Y+e.9.8.8.}.(.9._+",
"f.s.2+f.)@q.u+,#,#U@i+w+h+`@0@x+0$N+E$6.}+.+>+B.8+^+/$F$a+G$H$I$7#_.2+<.(+(.}.}._+9.(.9.d.}.t$:@y+K.9.v.6.j.v+u@s._+_+}.|._.(._."};
