/* XPM */
static char * barrel_side_xpm[] = {
"32 32 9 1",
" 	c #513B28",
".	c #61492E",
"+	c #443122",
"@	c #59402B",
"#	c #1B191C",
"$	c #232124",
"%	c #2C2F34",
"&	c #3A393F",
"*	c #58412B",
" ..... ..... ...... ..... ..... ",
" ..... ..... ...... ..... ..... ",
"+@...@+@...@+@....@+@...@+@...@+",
"#$$$$$$$$$$$$$$$$$%%&&&%%$$$$$$#",
"#$$$$$$$$$$$$$$$$%%&&&%%$$$$$$$#",
"################################",
"+ *** + *** + **** + *** + *** +",
"+.....+.....+......+.....+.....+",
"#$$$$$$$$$$$$$$$%%&&&&%%$$$$$$$#",
"#$$$$$$$$$$$$$$%%&&&&%%$$$$$$$$#",
"################################",
"+ *** + *** + **** + *** + *** +",
"+.....+.....+......+.....+.....+",
"+.....+.....+......+.....+.....+",
" ..... ..... ...... ..... ..... ",
" ..... ..... ...... ..... ..... ",
" ..... ..... ...... ..... ..... ",
" ..... ..... ...... ..... ..... ",
" ..... ..... ...... ..... ..... ",
"+.....+.....+......+.....+.....+",
"+ ... + ... + .... + ... + ... +",
"#$$$$$$$$$$$$$$$$$%%&&%$$$$$$$$#",
"#$$$$$$$$$$$$$$$$%%&&%$$$$$$$$$#",
"################################",
"+ *** + *** + **** + *** + *** +",
"+.....+.....+......+.....+.....+",
"+.....+.....+......+.....+.....+",
"+.....+.....+......+.....+.....+",
"+ ... + ... + .... + ... + ... +",
"#$$$$$$$$$$$$$$$%$%%%$$$$$$$$$$#",
"#$$$$$$$$$$$$$$%$%%%$$$$$$$$$$$#",
"################################"};
