/* XPM */
static char * wall2_xpm[] = {
"64 64 113 2",
"  	c #6C6463",
". 	c #696262",
"+ 	c #706968",
"@ 	c #6C6464",
"# 	c #675F5F",
"$ 	c #726A6A",
"% 	c #736B6B",
"& 	c #6F6767",
"* 	c #6A6363",
"= 	c #696161",
"- 	c #686060",
"; 	c #676060",
"> 	c #6B6464",
", 	c #686161",
"' 	c #645D5D",
") 	c #665F5F",
"! 	c #6E6666",
"~ 	c #706868",
"{ 	c #6C6565",
"] 	c #6E6766",
"^ 	c #655E5D",
"/ 	c #635C5B",
"( 	c #6A6262",
"_ 	c #6B6463",
": 	c #6E6767",
"< 	c #726B6B",
"[ 	c #6C6564",
"} 	c #696261",
"| 	c #655E5E",
"1 	c #6D6565",
"2 	c #6A6362",
"3 	c #706969",
"4 	c #655E5F",
"5 	c #5E595B",
"6 	c #6F6766",
"7 	c #6F6868",
"8 	c #686160",
"9 	c #716A6A",
"0 	c #6B6363",
"a 	c #6D6665",
"b 	c #6A6263",
"c 	c #67605F",
"d 	c #746C6C",
"e 	c #766E6E",
"f 	c #6D6666",
"g 	c #746D6C",
"h 	c #726B6A",
"i 	c #635D5E",
"j 	c #736B69",
"k 	c #5F5A5C",
"l 	c #6E6664",
"m 	c #6F6765",
"n 	c #797272",
"o 	c #756E6E",
"p 	c #736B6C",
"q 	c #766F6F",
"r 	c #787071",
"s 	c #756D6E",
"t 	c #736C6C",
"u 	c #746D6D",
"v 	c #7A7272",
"w 	c #7C7474",
"x 	c #7B7474",
"y 	c #787070",
"z 	c #777070",
"A 	c #756D6D",
"B 	c #787171",
"C 	c #7F7878",
"D 	c #7F7778",
"E 	c #706869",
"F 	c #726A6B",
"G 	c #776F6F",
"H 	c #7A7373",
"I 	c #5E585B",
"J 	c #5B5659",
"K 	c #6D6563",
"L 	c #6D6667",
"M 	c #776F70",
"N 	c #746C6D",
"O 	c #807878",
"P 	c #827B7B",
"Q 	c #7C7575",
"R 	c #797171",
"S 	c #766E6F",
"T 	c #797172",
"U 	c #7D7575",
"V 	c #7F7777",
"W 	c #7B7374",
"X 	c #5D575A",
"Y 	c #595356",
"Z 	c #726A68",
"` 	c #746C6A",
" .	c #7E7676",
"..	c #7B7373",
"+.	c #71696A",
"@.	c #625D5F",
"#.	c #595457",
"$.	c #756C6A",
"%.	c #78706E",
"&.	c #7A7273",
"*.	c #605B5D",
"=.	c #786F6D",
"-.	c #7E7777",
";.	c #635E61",
">.	c #5D585B",
",.	c #746C6B",
"'.	c #716967",
").	c #807879",
"!.	c #655F62",
"~.	c #615C5F",
"{.	c #6E6665",
"].	c #645E5E",
"^.	c #726A69",
"    . + @ # . $ % & * = = * - = ; > = , . = ' ) ! ~ { ~ ] ^ / ( @ . > _ ( ! : & < % [ ; ; } ! > ) | ] ~ ~ : 1 @ 2 { [ 3 + ! 4 5 ",
"6 . : 7 > 8 . 9 $ 7 } . _ 0 2 ) = . * * a > ; . @ > b 1 + > # ; , * = , c , ~ d e % : = - > f ] > * g ~ & { ( { + { . ! h h = i ",
"j   . + @ # . $ % & * = = * - = ; > = , . = ' ) ! ~ { ~ ] ^ / ( @ . > _ ( ! : & < % [ ; ; } ! > ) | ] ~ ~ : 1 @ 2 { [ 3 + ! 4 k ",
"l m 7 n n o p q r s t u t o q d < v w q u $ 7 u v x r y z 3 9 q q u A q o o B w C D y 3 E t o B o t u q t F t A u A G H v q I J ",
"K m L o x H A t z n r u % e M o N O P Q n R F t q z S q n o q T e o s q e o U V e o t : d u u x n q u G o A G z s G o q W M X Y ",
"Z ` 9 B T H o z x H z B o < F t < w  .H B ..B u < : < z R B q y o r u o y o x ..t N +.7 < t < e B u u H G z B q T W q z C Q @.#.",
"$.%.B Q G o < o z G e B B t 9 9 < A q z y w n S 9 9 d y x y o n x H z q &.e o q z o d o e S y G n y u U U G R q w ..T y B u *.5 ",
"` =.v &.z q 9 o e A u t q t u o q u t G H -.x z F N M z n u q U x y u < u e t o e 9 $ N o q z R n x G R C  .Q Q v B R H z u ;.>.",
"$.%.B Q G o < o z G e B B t 9 9 < A V e o t : d u u x n q u G o A G z s G o q W z o d o e S y G n y u U U G R q w ..T y B u *.5 ",
"` =.v &.z q 9 o e A u t q t u o q u ..t N +.7 < t < e B u u H G z B q T W q z C e 9 $ N o q z R n x G R C  .Q Q v B R H z u ;.>.",
",.'.o x y A o p 3 < 3 < t t A z v y q z o d o e S y G n y u U U G R q w ..T y B t 9 9 d < u z q q Q n q x C ).n A B n U B A !.~.",
"{.. : n n o V e o t : d u u x n q u o e 9 $ N o q z R n x G R C  .Q Q v B R H z C D y 3 E t o B o t u q t F t A u A G H v q = ].",
"^.  . o x H ..t N +.7 < t < e B u u q z o d o e S y G n y u U U G R q w ..T y B e o t : d u u x n q u G o A G z s G o q W M 4 k ",
"6 . : B T H q z o d o e S y G n y u o e 9 $ N o q z R n x G R C  .Q Q v B R H z t N +.7 < t < e B u u H G z B q T W q z C Q = i ",
"Z   . Q G o o e 9 $ N o q z R n x G t t 9 9 d < u z q q Q n q x C ).n A B n U B z o d o e S y G n y u U U G R q w ..T y B u 4 k ",
"l m 7 n n o q z o d o e S y G n y u w C D y 3 E t o B o t u q t F t A u A G H v C D y 3 E t o B o t u q t F t A u A G H v q I J ",
"K m L o x H o e 9 $ N o q z R n x G V e o t : d u u x n q u G o A G z s G o q W e o t : d u u x n q u G o A G z s G o q W M X Y ",
"Z ` 9 B T H t t 9 9 d < u z q q Q n ..t N +.7 < t < e B u u H G z B q T W q z C t N +.7 < t < e B u u H G z B q T W q z C Q @.#.",
"$.%.B Q G o w C D y 3 E t o B o t u q z o d o e S y G n y u U U G R q w ..T y B z o d o e S y G n y u U U G R q w ..T y B u *.5 ",
"` =.v &.z q V e o t : d u u x n q u G o A G z s G o q W n u q U V e o t : d u u x n q u G o A G z s G o q W Q Q v B R H z u ;.>.",
"$.%.B Q G o ..t V e o t : d u u x n q u G o A G z s G o q W o n ..t N +.7 < t < e B u u H G z B q T W q z C R q w ..T y B u *.5 ",
"` =.v &.z q q z ..t N +.7 < t < e B u u V e o t : d u u x n q u G o A G z s G o q W y u U U G R q w ..T y B Q Q v B R H z u ;.>.",
",.'.o x y A V e o t : d u u x n q u G o ..t N +.7 < t < e B u u H G z B q T W q z C x G R C  .Q Q v B R H z ).n A B n U B A !.~.",
"{.. : V e o t : d u u x n q u G o A G z q z o d o e S y G n y u U U G R q w ..T y B y u U U G R q w ..T y B t A u A G H v q = ].",
"^.  . ..t N +.7 < t < e B u u H G z B q o e 9 $ N o q z R n x G R C  .Q Q v B R H z x G R C  .Q Q v B R H z G z s G o q W M 4 k ",
"6 . : n n o p q r s t u t o q d < v w q u $ 7 u v x r y z 3 9 q q u A q o o B w C D y 3 E t o B o t u q t F t A u A G H v q = i ",
"Z   . o x H A t z n r u % e M o N O P Q n R F t q z S q n o q T e o s q e o U V e o t : d u u x n q u G o A G z s G o q W M 4 k ",
"6 . : B T H o z x H z B o < F t < w  .H B ..B u < : < z R B q y o r u o y o x ..t N +.7 < t < e B u u H G z B q T W q z C Q = i ",
"l m 7 Q G o < o z G e B B t 9 9 < A q z y w n S 9 9 d y x y o n x H z q &.e o q z o d o e S y G n y u U U G R q w ..T y B u I J ",
"K m L &.z q 9 o e A u t q t u o q u t G H -.x z F N M z n u q U x y u < u e t o e 9 $ N o q z R n x G R C  .Q Q v B R H z u X Y ",
"Z ` 9 Q G o < o z G e B B t 9 9 < A V e o t : d u u x n q u G o A G z s G o q W z o d o e S y G n y u U U G R q w ..T y B u @.#.",
"$.%.B &.z q 9 o e A u t q t u o q u ..t N +.7 < t < e B u u H G z B q T W q z C e 9 $ N o q z R n x G R C  .Q Q v B R H z u *.5 ",
"` =.v x y A o p 3 < 3 < t t A z v y q z o d o e S y G n y u U U G R q w ..T y B t 9 9 d < u z q q Q n q x C ).n A B n U B A = i ",
"$.%.B n n o V e o t : d u u x n q u o e 9 $ N o q z R n x G R C  .Q Q v B R H z C D y 3 E t o B o t u q t F t A u A G H v q 4 k ",
"` =.v o x H ..t N +.7 < t < e B u u q z o d o e S y G n y u U U G R q w ..T y B e o t : d u u x n q u G o A G z s G o q W M I J ",
",.'.o B T H q z o d o e S y G n y u o e 9 $ N o q z R n x G R C  .Q Q v B R H z t N +.7 < t < e B u u H G z B q T W q z C Q X Y ",
"{.. : Q G o o e 9 $ N o q z R n x G t t 9 9 d < u z q q Q n q x C ).n A B n U B z o d o e S y G n y u U U G R q w ..T y B u @.#.",
"^.  . n n o q z o d o e S y G n y u w C D y 3 E t o B o t u q t F t A u A G H v C D y 3 E t o B o t u q t F t A u A G H v q *.5 ",
"6 . : o x H o e 9 $ N o q z R n x G V e o t : d u u x n q u G o A G z s G o q W e o t : d u u x n q u G o A G z s G o q W M ;.>.",
"Z   . B T H t t 9 9 d < u z q q Q n ..t N +.7 < t < e B u u H G z B q T W q z C t N +.7 < t < e B u u H G z B q T W q z C Q *.5 ",
"6 . %.B G o w C D y 3 E t o B o t u q z o d o e S y G n y u U U G R q w ..T y B z o d o e S y G n y u U U G R q w ..T y B u ;.>.",
"Z   =.v z q V e o t : d u u x n q u G o A G z s G o q W n u q U V e o t : d u u x n q u G o A G z s G o q W Q Q v B R H z u !.~.",
"6 . %.B G o ..t V e o t : d u u x n q u G o A G z s G o q W o n ..t N +.7 < t < e B u u H G z B q T W q z C R q w ..T y B u = ].",
"j   =.v z q q z ..t N +.7 < t < e B u u V e o t : d u u x n q u G o A G z s G o q W y u U U G R q w ..T y B Q Q v B R H z u 4 k ",
"l m '.o y A V e o t : d u u x n q u G o ..t N +.7 < t < e B u u H G z B q T W q z C x G R C  .Q Q v B R H z ).n A B n U B A = i ",
"K %.. : e o t : d u u x n q u G o A G z q z o d o e S y G n y u U U G R q w ..T y B y u U U G R q w ..T y B t A u A G H v q 4 k ",
"Z =.  . t N +.7 < t < e B u u H G z B q o e 9 $ N o q z R n x G R C  .Q Q v B R H z x G R C  .Q Q v B R H z G z s G o q W M I J ",
"$.%.B q z o d o e S y G n y u U U G R q q z o d o e S y G n y u U U G R q w ..T y B t : d u u x n q u G o A G z s G o q W Q X Y ",
"` =.v o e 9 $ N o q z R n x G R C  .Q Q o e 9 $ N o q z R n x G R C  .Q Q v B R H z +.7 < t < e B u u H G z B q T W q z C u @.#.",
"$.'.o q z o d o e S y G n y u U U G R q t t 9 9 d < u z q q Q n q x C ).n A B n U B d o e S y G n y u U U G R q w ..T y B h *.5 ",
"` . : o e 9 $ N o q z R n x G R C  .Q Q w C D y 3 E t o B o t u q t F t A u A G H v $ N o q z R n x G R C  .Q Q v B R H z q ;.>.",
",.%.B t t 9 9 d < u z q q Q n q x C ).n V e o t : d u u x n q u G o A G z s G o q W d o e S y G n y u U U G R q w ..T y B M *.5 ",
"{.=.v w C D y 3 E t o B o t u q t F t A ..t N +.7 < t < e B u u H G z B q T W q z C $ N o q z R n x G R C  .Q Q v B R H z Q ;.>.",
"^.%.B V e o t : d u u x n q u G o A G z q z o d o e S y G n y u U U G R q w ..T y B 9 d < u z q q Q n q x C ).n A B n U B u !.~.",
"6 =.v ..t N +.7 < t < e B u u H G z B q T W q z C T y B n u q U x y t t 9 9 d w C D y 3 E t o B o t u q t F t A u A G H v u = ].",
"Z '.o q z o d o e S y G n y u U U G R q w ..T y B 9 d y x y o n x H w C D y 3 V e o t : d u u x n q u G o A G z s G o q W u 4 k ",
"l . : &.z q 9 o e A u t q t u o q u t G H -.x z F N M z n u q U x y V e o t : ..t N +.7 < t < e B u u H G z B q T W q z C u = i ",
"K   . x y A o p 3 < 3 < t t A z v y t t A n n z < A G S q o o x z z ..t N +.7 q z o d o e S y G n y u U U G R q w ..T y B A 4 k ",
"Z %.B n n o p q r s t u t o q d < v w q u $ 7 u v x r y z 3 9 q q u q z o d o e S y G n y u U U G R q w ..T y B T y B H v q = i ",
"$.=.v o x H A t z n r u % e M o N O P Q n R F t q z S q n o q T e o s q e o U V e o t : d u u x n q u G o A G z s G o q W M I J ",
"` '.o B T H o z x H z B o < F t < w  .H B ..B u < : < z R B q y o r u o y o x ..t N +.7 < t < e B u u H G z B q T W q z C Q = i ",
"$.. : Q G o < o z G e B B t 9 9 < A q z y w n S 9 9 d y x y o n x H z q &.e o q z o d o e S y G n y u U U G R q w ..T y B u 4 k ",
"`   . , . 9 $ 7 } . _ 0 2 ; = , . * a { , . @ * . 1 + > - ; , 7 0 , . 9 $ 7 } . _ 0 2 ; = , . * a { , . @ * . 1 + > - ; , * = i ",
",.'.@ # . $ % & * = = * - = ; > = , . = ' ) ! ~ { ~ ] ^ / ( @ + @ # . $ % & * = = * - = ; > = , . = ' ) ! ~ { ~ ] ^ / ( @ . I J "};
